<svg width="61" height="49" viewBox="0 0 61 49" fill="none" xmlns="http://www.w3.org/2000/svg">
<path d="M54.9645 24.7373C54.9645 30.9266 52.6631 36.5736 48.874 40.8831L56.4266 39.1535C58.8049 34.8843 60.1644 29.9702 60.1644 24.7373C60.1644 14.5683 55.0487 5.60122 47.2507 0.254699L39.5699 2.01366C48.5882 5.61954 54.9645 14.429 54.9645 24.7373Z" fill="url(#paint0_linear_196_33)"/>
<path d="M13.4309 49L20.9578 47.2777C12.185 43.5582 6.02861 34.8697 6.02861 24.7373C6.02861 18.372 8.45818 12.5784 12.4415 8.22501L4.76068 9.98397C2.26515 14.3301 0.828668 19.3651 0.828668 24.7373C0.828668 34.767 5.8124 43.6315 13.4309 49Z" fill="url(#paint1_linear_196_33)"/>
<path d="M30.4963 3.21937C18.6123 3.21937 8.97835 12.8533 8.97835 24.7374C8.97835 36.6214 18.6123 46.2554 30.4963 46.2554C42.3804 46.2554 52.0143 36.6214 52.0143 24.7374C52.0143 12.8533 42.3804 3.21937 30.4963 3.21937Z" fill="url(#paint2_linear_196_33)"/>
<path d="M18.1103 11.0099L31.6067 7.93171L34.1865 22.9672L40.9146 21.4318L34.542 21.2412L37.5396 6.57951L51.0359 3.50132L43.9744 37.9624L31.9512 40.7071C31.1157 40.8976 30.3645 40.4249 30.2435 39.6114L27.8982 26.0087L24.5452 42.3964L11.0488 45.4746L18.114 11.0099H18.1103Z" fill="#D3FF00"/>
<defs>
<linearGradient id="paint0_linear_196_33" x1="30.4965" y1="0.2547" x2="30.4965" y2="49" gradientUnits="userSpaceOnUse">
<stop stop-color="#490A8C"/>
<stop offset="0.78" stop-color="#881FDE"/>
</linearGradient>
<linearGradient id="paint1_linear_196_33" x1="10.8913" y1="8.22867" x2="10.8913" y2="49" gradientUnits="userSpaceOnUse">
<stop stop-color="#490A8C"/>
<stop offset="0.78" stop-color="#881FDE"/>
</linearGradient>
<linearGradient id="paint2_linear_196_33" x1="30.4963" y1="3.22303" x2="30.4963" y2="46.2554" gradientUnits="userSpaceOnUse">
<stop stop-color="#DB00A7"/>
<stop offset="0.78" stop-color="#FF0677"/>
</linearGradient>
</defs>
</svg>